<svg xmlns="http://www.w3.org/2000/svg" width="513.395" height="400.123">
  <path
    d="M22.702 297.395h107.1a22.837 22.837 0 0112.826 3.937l139.646 94.815c15.067 10.23 35.529-.468 35.529-18.574V22.549c0-18.106-20.462-28.8-35.529-18.574L142.63 98.791a22.838 22.838 0 01-12.826 3.937H22.702a22.607 22.607 0 00-22.7 22.511v149.645a22.608 22.608 0 0022.7 22.511z" />
  <path
    d="M371.701 281.31a16.831 16.831 0 0023.809.058 113.9 113.9 0 0033.753-81.305 114.163 114.163 0 00-33.638-81.277 16.838 16.838 0 00-23.809 23.817 80.7 80.7 0 0123.772 57.459 80.476 80.476 0 01-23.832 57.436 16.832 16.832 0 00-.055 23.812z" />
  <path
    d="M479.721 200.062a162.577 162.577 0 01-48.708 116.218 16.511 16.511 0 00.029 23.536 16.982 16.982 0 0023.813-.028c37.753-37.407 58.544-87.031 58.544-139.726S492.604 97.743 454.851 60.337a16.984 16.984 0 00-23.813-.028 16.511 16.511 0 00-.025 23.535 162.578 162.578 0 0148.708 116.218z" />

</svg>